<svg width="48" height="48" viewBox="0 0 48 48" fill="none" xmlns="http://www.w3.org/2000/svg">
<rect width="48" height="48" rx="12" fill="#3B82F6"/>
<path d="M22 22V17C22 16.7348 22.1054 16.4804 22.2929 16.2929C22.4804 16.1054 22.7348 16 23 16H25C25.2652 16 25.5196 16.1054 25.7071 16.2929C25.8946 16.4804 26 16.7348 26 17V22" stroke="white" stroke-width="2" stroke-linecap="round" stroke-linejoin="round"/>
<path d="M26 18C27.5913 18 29.1174 18.6321 30.2426 19.7574C31.3679 20.8826 32 22.4087 32 24V27" stroke="white" stroke-width="2" stroke-linecap="round" stroke-linejoin="round"/>
<path d="M16 27V24C16 22.4087 16.6321 20.8826 17.7574 19.7574C18.8826 18.6321 20.4087 18 22 18" stroke="white" stroke-width="2" stroke-linecap="round" stroke-linejoin="round"/>
<path d="M33 27H15C14.4477 27 14 27.4477 14 28V30C14 30.5523 14.4477 31 15 31H33C33.5523 31 34 30.5523 34 30V28C34 27.4477 33.5523 27 33 27Z" stroke="white" stroke-width="2" stroke-linecap="round" stroke-linejoin="round"/>
</svg>
