<svg width="48" height="48" viewBox="0 0 48 48" fill="none" xmlns="http://www.w3.org/2000/svg">
<rect width="48" height="48" rx="12" fill="#3B82F6"/>
<path d="M18 26.0001L19.5 23.1001C19.6631 22.7762 19.9111 22.5028 20.2176 22.309C20.5241 22.1153 20.8775 22.0085 21.24 22.0001H32M32 22.0001C32.3055 21.9996 32.6071 22.069 32.8816 22.2032C33.1561 22.3373 33.3963 22.5326 33.5836 22.774C33.7709 23.0153 33.9004 23.2964 33.9622 23.5956C34.024 23.8949 34.0164 24.2043 33.94 24.5001L32.4 30.5001C32.2886 30.9317 32.0362 31.3136 31.6829 31.5854C31.3296 31.8571 30.8957 32.0031 30.45 32.0001H16C15.4696 32.0001 14.9609 31.7894 14.5858 31.4143C14.2107 31.0392 14 30.5305 14 30.0001V17.0001C14 16.4697 14.2107 15.961 14.5858 15.5859C14.9609 15.2108 15.4696 15.0001 16 15.0001H19.9C20.2345 14.9968 20.5645 15.0775 20.8597 15.2347C21.1549 15.3919 21.406 15.6207 21.59 15.9001L22.4 17.1001C22.5821 17.3766 22.83 17.6036 23.1215 17.7607C23.413 17.9178 23.7389 18 24.07 18.0001H30C30.5304 18.0001 31.0391 18.2108 31.4142 18.5859C31.7893 18.961 32 19.4697 32 20.0001V22.0001Z" stroke="white" stroke-width="2" stroke-linecap="round" stroke-linejoin="round"/>
</svg>
