<svg xmlns="http://www.w3.org/2000/svg" width="159.991" height="77.069" viewBox="0 0 159.991 77.069"><g transform="translate(-90.54 1461.605)"><g transform="translate(90.54 -1461.605)"><path d="M2354.944,3007.754c-.036.135-.4,1.122-.447,1.17a2.258,2.258,0,0,1-.125.357c-.047.119-.082.224-.126.346l-.254.675-.617,1.7c-.057.078-.253.646-.307.789-.1.271-.189.53-.293.792-.206.52-.383,1.06-.59,1.581l-1.182,3.185-.092.227a3.963,3.963,0,0,1-.178.491l-.549,1.48c-.062.168-.113.31-.178.482l-5.294,14.238c-.232.644-.517,1.309-.731,1.957l-.634,1.7c-.036.093-.058.167-.094.26-.131.332-.239.645-.364.981-.216.578-.543,1.391-.731,1.958-.053.16-.12.316-.182.483s.14.109.516.109h6.723c.922,0,1.767.024,2.69.024.1-.2,3.025-12.3,3.321-13.475l1.986-8.134.779.047c.119,0,.131.023.258.025.379,0,.723.049,1.086.046l6.394.1c.127,0,.139-.022.258-.025.75-.023,1.49.013,2.2-.045.178-.015.384.009.565,0l.543-.023c.129,0,.152-.019.259-.024l.827-.022c.122,0,.13-.019.235-.025s.192,0,.283,0c.108-.005.129-.024.259-.024.45,0,.9-.057,1.346-.069.119,0,.13-.024.258-.025.5,0,3.675-.274,4.163-.343l.769-.08c1.017-.088,2.008-.23,3.012-.362.651-.085,1.318-.187,1.981-.283a94.808,94.808,0,0,0,11.184-2.357c.272-.074.583-.154.863-.246.717-.233,1.459-.423,2.17-.66l2.1-.708c1.2-.421,3.376-1.262,4.434-1.77l1.91-.9c.262-.131.49-.257.747-.385a35.006,35.006,0,0,0,3.558-2.081,26.617,26.617,0,0,0,3.054-2.3l.448-.4c.06-.056.092-.068.154-.129a12.393,12.393,0,0,0,1.255-1.292h-8.823c-.152,0-.3-.037-.4.073-.431.494-.9.955-1.365,1.419-.177.178-.523.513-.723.668a1,1,0,0,0-.125.11c-.055.053-.076.058-.13.106a3.6,3.6,0,0,1-.519.43.507.507,0,0,1-.207.165,2.637,2.637,0,0,1-.312.254c-.367.3-.925.695-1.316.972l-1.047.7c-.539.361-1.232.751-1.793,1.085-.132.078-.25.13-.381.208l-.363.2c-.134.07-.248.136-.386.2l-1.124.575c-.131.065-.271.123-.4.188s-.238.12-.385.182l-.4.188c-.132.063-.255.121-.39.176l-3.72,1.493c-.694.269-1.854.644-2.578.866-1.207.37-2.394.7-3.617,1.007l-1.853.435c-.3.065-.635.141-.952.2-1.737.348-3.167.607-4.924.855l-.995.114a5.911,5.911,0,0,1-.946.139l-.979.106c-.451.062-1.108.091-1.483.145-.173.025-.329.017-.5.04-.349.046-1.27.094-1.753.134-.092.008-.186-.005-.278,0-.468.052-1.1.053-1.538.09-.167.014-.392,0-.564,0l-.024.024h-.023c-1.013,0-2,.047-3.02.047l-3.019-.059-.047-.012c-.34,0-.612-.012-.944-.023-.113,0-.108-.019-.212-.024-.076,0-.16,0-.237,0-.113,0-.107-.019-.212-.024-.083,0-.175.006-.258,0l-1.368-.094c-.119-.01-.331-.043-.449-.046l.552-2.255a2.357,2.357,0,0,1,.085-.316,4.962,4.962,0,0,1,.138-.637l.744-2.987c.08-.352.163-.676.245-1l.854-3.486c.021-.083.041-.154.061-.246s.046-.181.061-.274l.3-1.212c.038-.211.209-.769.212-.912H2355.3c-.011.125-.31.813-.355.991Z" transform="translate(-2309.769 -2965.67)" fill="#853c91" fill-rule="evenodd"/><path d="M-1926.658,1030.566Zm-43.052,21.291v-.036a7.252,7.252,0,0,1,.084-.978,12.525,12.525,0,0,1,1.323-4.032,13.453,13.453,0,0,1,1.255-1.953,10.49,10.49,0,0,1,.847-1.04c.059-.059.067-.083.118-.142.162-.183.367-.355.515-.547a7.464,7.464,0,0,1,.688-.68l.129-.13.272-.248a1.2,1.2,0,0,1,.147-.136c.061-.046.079-.073.136-.123.475-.422.973-.825,1.481-1.208.209-.158.4-.3.61-.452.114-.082.213-.146.321-.222.632-.449,1.292-.874,1.957-1.275.109-.066.2-.129.323-.2.067-.037.114-.067.177-.105l1.718-.948c.623-.324,1.7-.886,2.325-1.143l1.49-.657c1.528-.655,3.1-1.234,4.68-1.76a90.774,90.774,0,0,1,13.818-3.332c2-.334,4.084-.6,6.132-.827.471-.053.978-.084,1.453-.151.331-.047.664-.043.994-.091.169-.024.33-.026.5-.039.133-.01.335-.042.473-.046.342-.009.931-.087,1.25-.095l2.268-.138c.512-.057,1.04-.015,1.533-.071.168-.019.368.012.536-.007l1.018-.044c.18,0,.364,0,.544,0,.127,0,.139-.022.258-.025.084,0,.175,0,.26,0l1.557-.024h1.061c-.072.309-.258.59-.33.9-.464,0-.928,0-1.392,0l-1.344.038-.047.009c-.5,0-.859.041-1.345.047-.121,0-.13.019-.235.025s-.192-.007-.282,0a1.678,1.678,0,0,1-.237.023c-.333,0-.722.044-1.04.069l-1.013.072c-.326.008-.7.068-1.016.093-.814.063-1.672.172-2.473.263a1.572,1.572,0,0,0-.45.092v-.024a3.823,3.823,0,0,0-.529.061c-.191.027-.333.043-.519.071a73.6,73.6,0,0,0-9.641,2.012c-.866.253-1.83.529-2.678.814-.732.246-1.874.637-2.573.918-1.036.417-2.079.814-3.089,1.3l-.6.275c-.125.063-.252.133-.381.186-.248.1-1.576.8-1.915.986-.955.534-1.62.935-2.536,1.522a28.517,28.517,0,0,0-2.67,1.977c-.043,0-.036-.013-.036.024a3.674,3.674,0,0,0-.322.256c-.1.082-.2.187-.3.266a1.4,1.4,0,0,0-.151.132c-.062.062-.093.073-.154.129l-1.286,1.262-1.177,1.371a15.248,15.248,0,0,0-2.435,4.382,11.718,11.718,0,0,0,1.187,10.036,19.872,19.872,0,0,0,1.93,2.624c.1.1.166.189.272.294l.271.3.566.566.578.555c.061.061.094.073.154.129l1.075.915.04.024a10.6,10.6,0,0,0,1.1.856c.743.554,1.524,1.07,2.319,1.549l1.705.984c.061.03.1.049.156.079.616.359,1.282.661,1.92.982.544.274,1.112.512,1.668.762l3.123,1.241c.618.239,1.951.7,2.538.859.633.173,1.216.371,1.854.553l1.525.409c.259.067.5.132.769.2s2.826.674,3.166.7c-.037.069-.053.115-.088.2l-.573,1.244a3.09,3.09,0,0,1-.488-.054l-1.4-.208c-.612-.1-1.231-.2-1.844-.3-1.222-.2-2.4-.457-3.6-.694-.6-.119-1.177-.269-1.757-.389-1.161-.24-2.284-.579-3.428-.865-1.232-.308-2.886-.841-4.11-1.245l-1.191-.412c-.131-.043-.274-.1-.4-.145l-.776-.286c-1.251-.454-3.255-1.28-4.524-1.916-.928-.465-1.921-.922-2.811-1.459-.231-.14-.459-.261-.687-.4l-1.964-1.244a24.464,24.464,0,0,1-2.16-1.615l-1.416-1.25c-.187-.185-.355-.357-.542-.543l-.648-.7c-.377-.427-.736-.873-1.069-1.337l-.435-.627a12.485,12.485,0,0,1-1.287-2.464,11.579,11.579,0,0,1-.681-2.528,11.745,11.745,0,0,1-.107-2.026Z" transform="translate(1969.71 -1020.077)" fill="#e63d25" fill-rule="evenodd"/><path d="M719.707,746.062c.1,0,.083.018.189.024.066,0,.145,0,.213,0l1.267.03c.243.033.593-.011.846.027s.576-.018.849.024l1.708.037c.132.007.233.024.4.024h.449c.171,0,.236.025.4.024,1.255,0,2.57.077,3.846.07.173,0,.246.024.4.024l.874,0c.157,0,.244.025.424.024.6,0,1.132.023,1.722.023a4.861,4.861,0,0,1,.047.637c.019.388.176,1.456.236,1.817a20.634,20.634,0,0,0,.514,2.222,23.472,23.472,0,0,0,.891,2.529l.419.95a1.952,1.952,0,0,1,.2.479l-1.109.023c-.161,0-.216.025-.376.025l-1.087.045c-.127.011-.272-.006-.4,0s-.2.025-.354.024a3.233,3.233,0,0,0-.355.022l-2.925.141c-.255.021-.5.005-.752.026-.2.017-.5.048-.709.046l-2.9.172a6.066,6.066,0,0,1-.737.041c-.088,0-1.45-1.963-1.453-1.967-.238-.357-.435-.691-.657-1.066a17.013,17.013,0,0,1-1.562-3.58,12.308,12.308,0,0,1-.527-2.917Zm13.588-1.415c-1.156,0-2.266.048-3.42.047l-1.7.048c-.284.008-.588,0-.874,0-.164,0-.229.025-.4.025l-1.7.023c-.175,0-.284.02-.424.024-.277.008-.6-.022-.872,0s-.553.024-.851.022c-.171,0-.236.025-.4.024l-1.3.023c-.519,0-1.185.047-1.7.047a14.789,14.789,0,0,1,.14-1.676,14.608,14.608,0,0,1,1-3.534,21.136,21.136,0,0,1,2.908-4.83,1.872,1.872,0,0,0,.2-.269c.141.033,1.192.074,1.461.1l2.218.141a7.015,7.015,0,0,1,.739.04c.214.029.526.023.749.029l2.24.12c.276,0,.475.018.757.022.141,0,.211.026.376.025a3.6,3.6,0,0,1,.379.022c.116.01.258,0,.377,0,.289,0,.775.05,1.132.048.158,0,.225.021.353.024s.27,0,.4,0,.211.025.376.025h.4c-.265.5-.713,1.524-.93,2.066-.291.728-.543,1.433-.777,2.219a22.3,22.3,0,0,0-.571,2.425,23.833,23.833,0,0,0-.293,2.726Zm4.482-21.255-.514.264c-.555.338-1.351.736-1.991,1.123l-2.9,1.773c-.38.227-1.934,1.27-2.341,1.575l-.9.653c-.162.111-.29.213-.448.331s-.286.222-.441.337c-.28.209-1.538,1.206-1.839,1.487l-.2.174a32.932,32.932,0,0,0-2.711,2.574,2.1,2.1,0,0,0-.194.206l-.779-.023c-.165,0-.225-.024-.377-.025l-1.2-.023c-.726,0-1.661-.071-2.382-.071-.961,0-2.21-.1-3.161-.094-.262,0-.49-.024-.779-.023-.161,0-.216-.025-.377-.025-.587,0-1.077-.048-1.581-.047-.171,0-.257-.023-.4-.024-.552-.007-1.059-.046-1.605-.046-.043,0-.035-.013-.035.024l5.226.5c.245.01.518.051.756.069l6.085.473-1.179,1.44c-.039.051-.061.073-.105.131-.145.193-.264.368-.408.56-.07.093-.131.186-.2.276-.282.4-.667,1.021-.921,1.461a17.907,17.907,0,0,0-.958,1.92,13.942,13.942,0,0,0-1.117,4.639c-.777,0-1.74.073-2.524.071-.171,0-.257.023-.4.025s-.3,0-.45,0-.227.025-.4.024c-.136,0-.316-.01-.447,0l-1.251.046c-.179,0-.267.024-.424.024-.547,0-1.173.049-1.7.046l-5.048.189c-.164,0-.229.025-.4.024-.21,0-.341-.035-.4.047.3,0,.555.008.849.023l1.655.091c.133.015.285-.008.418.007.322.036,1.424.052,1.661.084.144.02.3,0,.442.006l1.676.07c.566.017,1.06.075,1.674.072l.839.034a2.677,2.677,0,0,0,.411.013c.18,0,.256.025.424.024.315,0,.54.024.85.023.171,0,.256.023.4.025s.306-.009.449,0l1.675.071a13.5,13.5,0,0,0,1.486,5.78l.718,1.287a21.312,21.312,0,0,0,1.706,2.375c.347.39.22.28-.063.3-.089.007-.266.014-.372.029s-.275.022-.367.034c-.067.009-.116,0-.182.007l-.964.074c-.387.042-1.23.084-1.5.124l-2.976.256c-.475.061-.989.086-1.489.139-.406.043-2.812.266-2.945.3l.04.024a3.977,3.977,0,0,0,.5-.017c.175-.024.359,0,.536-.006.1-.006.113-.023.235-.025.094,0,.19,0,.284,0l.779-.023c.116,0,.118-.022.234-.025a4.58,4.58,0,0,0,.533-.009l1.048-.037c.284,0,.348-.023.494-.024.164,0,.383.015.54,0a4.452,4.452,0,0,1,.522-.02c.206,0,.313-.024.519-.024.38,0,.677-.025,1.062-.023.19,0,.31-.024.519-.024l1.038-.023c.206,0,.313-.024.519-.024.671,0,1.429-.042,2.124-.048.258,0,.158.03.335.208l2.917,2.721,1.368,1.085c.435.348,1.433,1.045,1.886,1.346.648.432,1.294.87,1.962,1.27.914.548,1.774,1.077,2.73,1.587.456.243,1.908,1.048,2.131,1.115l.091-.227-1.163-.745c-.635-.424-1.651-1.085-2.272-1.549-.128-.1-.241-.169-.37-.266-.671-.507-1.343-.976-2-1.512l-3.254-2.809c-.111-.111-.2-.21-.318-.319-.064-.062-.1-.077-.166-.141l-1.4-1.477c-.1-.125-.218-.23-.3-.357.516,0,.962-.024,1.463-.024.264,0,.472-.025.708-.024s.52.013.755,0l1.086-.023c.149,0,.2-.026.353-.025h.732c.257,0,.456-.024.731-.024,1.679,0,3.416-.071,5.119-.071.274,0,.48-.023.731-.023l.449.777c.155.259.309.518.475.775l.746,1.118c.045.066.079.123.122.184l.151.189.617-1.7c-.12-.236-.219-.435-.336-.668l-.315-.7,1.156-.01c.046-.048.411-1.036.447-1.17l-1.579.023c-.205,0-.313.024-.519.024-.26-.542-.822-2.314-.994-2.9a25.936,25.936,0,0,1-.766-3.787c-.029-.212-.037-.381-.064-.6a10.463,10.463,0,0,1-.088-1.233c1.139,0,2.206.024,3.35.024v-1.887c-1.151,0-2.225.024-3.373.024a24.965,24.965,0,0,1,.643-5.019c.076-.358.184-.763.287-1.128l1.075-3.171c.8,0,1.55.051,2.359.047.2,0,.344.024.566.024.2,0,.409,0,.614,0s.345.024.566.024l1.793.023c.384,0,.826-.021,1.2,0l2.391.024.442-1.227c-3.15,0-6.29-.047-9.439-.047a.8.8,0,0,1,.087-.2l1.973-3.712a46.569,46.569,0,0,1,3.592-5.09l.681-.829c.216-.276.675-.762.839-.977a1.712,1.712,0,0,1,.136-.147l.283-.331c.062-.07.1-.084.147-.169l-.047.009c-.058.087-.08.084-.158.148-.061.051-.109.107-.166.164l-.673.625c-.105.106-.22.236-.331.329a1.758,1.758,0,0,0-.164.142l-2.24,2.312a1.5,1.5,0,0,0-.16.171,1.37,1.37,0,0,1-.148.159l-2.8,3.4-2.092,3.122c-.059.1-.453.745-.476.845-1.221,0-2.483-.05-3.727-.047-.257,0-.456-.024-.731-.024-1.488,0-3.018-.068-4.506-.07-.149,0-.2-.026-.353-.025l-.756,0c-.138,0-.194-.026-.352-.025-.534,0-.985-.023-1.51-.023l.336-.4c.035-.037.061-.056.094-.094.608-.688,1.073-1.141,1.734-1.8l1.557-1.415c.131-.122.258-.22.389-.342.048-.045.057-.044.1-.084l1.124-.929c.889-.72,2.042-1.57,2.965-2.225.148-.1.3-.2.444-.31l4.509-2.922Z" transform="translate(-694.534 -712.824)" fill="#8b8d8f" fill-rule="evenodd"/><path d="M4260.28,662.033c.485,0,.765.042,1.184.046.122,0,.13.019.235.024l.94.051c.607.067,1.219.095,1.824.158.165.017.293.018.454.041.31.043.591.049.9.091.5.068,1.09.11,1.541.181.112.018.107.046.191.068-.04-.072-.012-.027,0-.047l2,.29,3.913.711a67.9,67.9,0,0,1,8.175,2.228c.293.1.559.2.856.3,1.03.357,2.3.89,3.286,1.313.806.344,1.573.718,2.358,1.11.269.134.5.264.763.393.39.193,1.094.6,1.485.827.477.272.961.6,1.43.882.312.19,2.524,1.74,2.676,1.948a.5.5,0,0,1,.2.165l1.943,1.775.559.6a1.155,1.155,0,0,0,.114.122c.054.055.058.076.106.13a1.363,1.363,0,0,1,.109.126c.1.14.124.105.344.1h8.894a7.694,7.694,0,0,0-.906-.981l-1.254-1.129c-.093-.073-.163-.143-.255-.216l-.792-.623c-.09-.069-.169-.134-.266-.206-.191-.143-.374-.263-.564-.4-.371-.274-.746-.51-1.124-.763s-.773-.493-1.177-.734l-1.2-.687c-.205-.123-.405-.211-.609-.334-.339-.2-1.573-.792-1.9-.954l-1.974-.88c-.708-.315-1.979-.815-2.718-1.08l-1.393-.5c-2.342-.778-4.187-1.338-6.617-1.945l-3.87-.872-2.394-.46c-1.877-.374-4.78-.741-6.624-.972-.479-.06-2.061-.248-2.555-.275-.295-.016-.592-.044-.892-.075l-.87-.073c-.381-.051-.911-.051-1.311-.105l-1.361-.078c-.582-.047-1.184-.074-1.795-.092-.146,0-.265-.025-.448-.024s-.267-.025-.447-.024c-.338,0-.6-.023-.948-.023l-.211.873Z" transform="translate(-4201.873 -652.125)" fill="#853c91" fill-rule="evenodd"/><path d="M6797.883,1907.768H6796.4c0-.355.352-2.649.352-2.948a9.513,9.513,0,0,1,2.808.188c.779.344.489,1.946-.081,2.373A2.746,2.746,0,0,1,6797.883,1907.768Zm-4.883,7.219h2.43a4.384,4.384,0,0,1,.066-.594c.061-.423.547-4.007.547-4.195a9.77,9.77,0,0,1,2.706.172c.318.167.385.7.385,1.031a25.689,25.689,0,0,0,0,3.586h2.547c0-.144-.022-.172-.025-.306l-.021-1.016c0-.99.1-2.788,0-3.635a1.316,1.316,0,0,0-1.248-1.275,3.163,3.163,0,0,0-.381-.043l.3-.1a3.389,3.389,0,0,0,1.647-1.16c.757-1,1.128-3.224.173-4.3a.823.823,0,0,0-.076-.088c-.039-.035-.06-.05-.1-.088a3.058,3.058,0,0,0-2.081-.584h-5.213l-.408,3.154c-.073.505-.133,1.045-.207,1.563-.037.263-.063.517-.1.793l-.207,1.563c-.037.257-.064.518-.1.793-.078.538-.135,1.042-.209,1.583l-.363,2.751C6793.037,1914.72,6793,1914.874,6793,1914.987Z" transform="translate(-6699.982 -1876.394)" fill="#211d1f" fill-rule="evenodd"/><path d="M3677.613,3007.2l-.3,1.212h4.266c1.938,0,3.882.034,5.827.024.2,0,.31.024.519.023.684,0,1.476-.036,2.147,0l.495.024c.233,0,1.548-.014,1.593.01s0,.108-.027.162l-.261.543a39.49,39.49,0,0,1-3.189,5.351c-.472.635-.865,1.2-1.374,1.833l-1.453,1.756c-.052.062-.06.08-.119.14s-.074.093-.13.154l-.257.285c-.087.109-.157.166-.242.276-.122.158-.745.77-.769.859h.023l.024-.023,1.208-1.08c.068-.063.108-.082.177-.153l.507-.46.165-.166.684-.636c.291-.294,1.043-1.014,1.3-1.32.094-.112.224-.226.331-.331l1.844-2.1c.728-.932,1.306-1.618,1.966-2.61a28.092,28.092,0,0,0,1.514-2.448h1.086c.158,0,.214.023.352.025l1.111,0c.128,0,.195.025.352.024,1,0,1.94.047,2.926.047l1.426.037a5.134,5.134,0,0,0,.722.01l2.173.067c.22.025.5-.009.729,0l.731.023c-.039.142-1.567,1.7-1.775,1.906l-1.145,1.072c-.924.814-1.609,1.373-2.594,2.172-.076.063-.136.1-.212.165s-.133.1-.213.165l-4.989,3.48c-.079.051-.159.1-.233.145l-1.825,1.123a.935.935,0,0,0-.226.152,2.028,2.028,0,0,0,.394-.173l3.121-1.573c.463-.229,1.06-.585,1.526-.833.13-.069.246-.138.375-.214l1.827-1.1c.124-.074.238-.144.362-.228l2.465-1.664c.687-.519,1.31-.974,1.988-1.526l.475-.4c.064-.061.1-.081.165-.141.262-.25.6-.524.931-.839.062-.058.093-.069.155-.128s.1-.1.153-.154l1.18-1.179c.186-.2.05-.158.43-.16l.85.023c.131,0,.15.023.281.025.412.006.747.017,1.158.022.127,0,.139.022.258.025l.85.023c.361,0,.793.018,1.133.046.369.031.79-.012,1.151.029.33.037.775.038,1.137.042.127,0,.139.022.258.025.1,0,.208,0,.308,0,.6,0,1.652.1,2.264.094.333,0,.747.046,1.133.046.129,0,.151.019.258.024s.21,0,.307,0a.507.507,0,0,0,.207-.165c-.317,0-1.59-.163-2.07-.189-.223-.013-.479-.06-.709-.07l-1.39-.12c-.211-.017-.474-.052-.687-.067l-.723-.055c-.547-.072-1.625-.134-2.27-.183l-.9-.07c-.1,0-.078-.015-.167-.022-.062,0-.121,0-.184,0-.208-.022-.493-.034-.694-.061l-1.433-.1a1.7,1.7,0,0,1,.179-.222c.067-.084.112-.143.18-.22.131-.15.237-.3.365-.461s.235-.31.355-.471c.059-.08.111-.153.167-.234a2.513,2.513,0,0,0,.169-.254h-1.627c-.6,0-.392-.16-.968.66l-.469.616c-.364.456-.309.481-.627.432l-3.09-.189a1.517,1.517,0,0,0-.25-.009l-1.535-.094c-.09-.007-.191,0-.282,0s-.113-.024-.234-.025l-1.305-.063c-.156-.021-.369-.01-.516-.027-.452-.051-1.8-.045-2.083-.088l-1.052-.032c-.116,0-.118-.022-.234-.025l-.826-.023.456-.983a.559.559,0,0,0,.063-.149h-2.076c-.1.186-.308.839-.425,1.061-1.167,0-2.552-.094-3.727-.094-.336,0-.605-.023-.921-.023a6.737,6.737,0,0,1-.954-.013c-.183-.029-1.1-.012-1.405-.01-.183,0-.277-.025-.472-.024-.619,0-6.221-.064-6.635-.006-.277.038-.712-.04-.96.021Z" transform="translate(-3626.869 -2965.197)" fill="#8b8d8f" fill-rule="evenodd"/><path d="M8390.082,1904.393a2.143,2.143,0,0,0,.048.283l.777,4.482h-3.066l.834-1.785c.055-.108.087-.184.133-.291Zm-7.172,9.766h2.645l.273-.645c.054-.111.1-.217.149-.323l.652-1.447c.032-.075.026-.133.1-.133h4.6c.078,0,.063.04.077.112l.357,2.1c.02.116.053.241.061.34h2.854c-.071-.3-.136-.614-.2-.934-.308-1.553-.676-3.151-.983-4.7-.124-.626-.269-1.268-.4-1.891l-1.028-4.94c-.033-.2-.065-.13-.72-.13h-2.287l-2.879,5.9c-.854,1.691-1.669,3.406-2.515,5.1-.137.269-.256.532-.387.794A5.4,5.4,0,0,0,8382.91,1914.159Z" transform="translate(-8268.165 -1875.566)" fill="#211d1f" fill-rule="evenodd"/><path d="M5741.941,1905.21a1.584,1.584,0,0,0,.044.286l.806,4.479h-3.114l.563-1.183c.044-.109.084-.182.137-.287.32-.634.677-1.478.991-2.1Zm-7.171,9.766h2.643l.287-.633c.085-.209.195-.42.283-.637l.563-1.277c1.48,0,3.083.024,4.554,0,.212,0,.164-.063.255.476l.213,1.249c.027.132.048.274.069.4s.064.3.074.421h2.807c0-.123-.121-.618-.155-.788l-.5-2.359c-.226-1.019-.424-2.137-.656-3.142l-1.312-6.307h-2.972l-1.715,3.523-.2.393c-.131.262-.25.525-.385.794-.266.532-.513,1.049-.779,1.581l-1.919,3.932c-.135.27-.263.514-.394.786-.035.073-.054.132-.085.2l-.3.6C5735.021,1914.45,5734.905,1914.72,5734.77,1914.977Z" transform="translate(-5656.213 -1876.384)" fill="#211d1f" fill-rule="evenodd"/><path d="M7600.909,3233.041a6.078,6.078,0,0,0,.4,2.547,4.618,4.618,0,0,0,.679,1.136c.082.1.208.212.305.309a5.067,5.067,0,0,0,5.291.867,3.757,3.757,0,0,0,.614-.425,7.233,7.233,0,0,0,.518-.543c0,.4.024.719.024,1.109h1.557c.117-.5.2-1.006.316-1.523.225-1.01.417-2.112.642-3.086.06-.26.1-.5.16-.76l.156-.787h-4.742a3.347,3.347,0,0,1-.089.477c-.048.2-.289,1.3-.289,1.434h2.595a4.962,4.962,0,0,1-.538,1.16,2.75,2.75,0,0,1-.872.874,3.507,3.507,0,0,1-2.813.184c-1.9-.852-1.569-3.79-.84-5.371.044-.1.086-.158.133-.244a3.81,3.81,0,0,1,1.336-1.423c1.042-.578,2.833-.622,3.53.331a1.784,1.784,0,0,1,.256.523c.11.357.044.641.161.641h2.359c.083,0,.071-.046.071-.142a3.572,3.572,0,0,0-1.974-3.263,5.4,5.4,0,0,0-.755-.308,6.425,6.425,0,0,0-2.273-.3,5.686,5.686,0,0,0-3.851,1.6c-.072.074-.127.128-.2.2a7.1,7.1,0,0,0-.533.648,4.957,4.957,0,0,0-.306.471,7.572,7.572,0,0,0-1.032,3.664Z" transform="translate(-7496.852 -3182.369)" fill="#e63d25" fill-rule="evenodd"/><path d="M10324.989,1907.545s.009,0,.009.007h0S10324.988,1907.547,10324.989,1907.545Zm-3.42,7.266c.77,0,1.628.036,2.385,0,.153-.006.1-.014.157-.435.233-1.774.437-3.581.679-5.334a4.059,4.059,0,0,0,.058-.556l1.652,3.939c.106.265.217.516.322.785l.646,1.6h3.231l-.184-.432c-.065-.152-.127-.293-.194-.441l-.581-1.306c-.072-.15-.133-.294-.2-.441l-.391-.882c-.064-.154-.125-.273-.187-.424-.211-.5-1.355-3-1.355-3.08,0-.059,1.036-1.322,1.1-1.4l3.06-3.828.138-.17a1.045,1.045,0,0,0,.138-.192h-2.666c-.288,0-.209-.052-.637.519-.633.848-1.378,1.767-2.028,2.618-.125.164-1.6,2.1-1.7,2.17a6.018,6.018,0,0,1,.078-.654l.532-3.974a5.11,5.11,0,0,0,.075-.68h-2.5l-.094.778c-.2,1.774-.494,3.708-.712,5.516-.031.244-.062.507-.1.773s-.066.538-.1.792c-.187,1.3-.327,2.651-.51,3.949-.035.248-.056.567-.107.788Z" transform="translate(-10180.333 -1876.217)" fill="#211d1f" fill-rule="evenodd"/><path d="M7683.694,1908.028H7681.9a5.923,5.923,0,0,1,.1-.777c.035-.255.073-.543.109-.787.04-.273.069-.515.109-.788l.111-.785c.841,0,2.16-.139,2.769.272.462.311.342,1.317.194,1.771a1.757,1.757,0,0,1-.3.6,1.618,1.618,0,0,1-1.295.5Zm-5.1,6.959H7681c0-.077.025-.183.038-.269l.25-1.967c.036-.3.278-2,.278-2.245a30.54,30.54,0,0,0,3.069-.069,2.829,2.829,0,0,0,.949-.23,2.887,2.887,0,0,0,1.56-1.413,6.871,6.871,0,0,0,.524-1.269,5.878,5.878,0,0,0-.1-3.94,2,2,0,0,0-1.243-1.021,5.041,5.041,0,0,0-1.336-.174h-4.718c-.085,0-.068.057-.075.138s-.012.1-.024.188l-.357,2.781c-.135,1.031-.273,2.119-.409,3.152l-.811,6.338Z" transform="translate(-7573.479 -1876.394)" fill="#211d1f" fill-rule="evenodd"/><path d="M9442.879,1898.453a5.489,5.489,0,0,0,1.007,3.5c1.338,1.658,4.332,1.649,6,.535a3.379,3.379,0,0,0,.654-.549,5.716,5.716,0,0,0,1.387-3.095c.02-.108.064-.2-.036-.2h-2.358c-.1,0-.106.192-.163.357a2.2,2.2,0,0,1-1.19,1.523,1.885,1.885,0,0,1-2.318-.545c-.614-1.023-.413-2.708-.226-3.839a6.784,6.784,0,0,1,.435-1.571,2.447,2.447,0,0,1,2.423-1.729c1.055,0,1.463.714,1.463,1.769h2.5c0-.181.02-.3.024-.447a9.339,9.339,0,0,0-.119-1.344,3.044,3.044,0,0,0-3.326-2.526,5.721,5.721,0,0,0-1.808.22,4.935,4.935,0,0,0-1.725.894,5.729,5.729,0,0,0-1.053,1.14A9.644,9.644,0,0,0,9443,1896.8a14.534,14.534,0,0,0-.12,1.649Z" transform="translate(-9313.65 -1864.459)" fill="#211d1f" fill-rule="evenodd"/><path d="M3392.9,1902.962a6.781,6.781,0,0,0,1.079-.1,4.747,4.747,0,0,0,.934-.27,4.118,4.118,0,0,0,1.941-1.644,6.521,6.521,0,0,0,.837-2.159c.04-.192.137-.45.022-.45h-2.406c-.1,0-.095.153-.155.364a2.6,2.6,0,0,1-.553,1.052,1.63,1.63,0,0,1-.266.252,2.137,2.137,0,0,1-2.124.18c-1.651-.837-.789-4.818-.342-5.9a3.188,3.188,0,0,1,.793-1.212,2.148,2.148,0,0,1,2.713-.107,2.043,2.043,0,0,1,.383,1.339h2.5l.024-.613a4.2,4.2,0,0,0-.831-2.707,2.608,2.608,0,0,0-1.05-.72,5.777,5.777,0,0,0-4.206.266,4.9,4.9,0,0,0-1.256.89,5.55,5.55,0,0,0-.945,1.225,11.083,11.083,0,0,0-1.265,4.491l-.049,1.013c.007.123.025.2.025.354a5.727,5.727,0,0,0,.759,2.826c.049.074.088.142.144.21a3.379,3.379,0,0,0,1.989,1.267A5.822,5.822,0,0,0,3392.9,1902.962Z" transform="translate(-3342.183 -1864.156)" fill="#211d1f" fill-rule="evenodd"/><path d="M4028.1,772.265c.131.079,1.549,1.844,1.744,2.081.09.11.158.207.249.318.331.4.63.833.942,1.251.763,1.021,1.548,2.234,2.2,3.319l.882,1.571c.266.511.714,1.355.928,1.856.034.081.051.126.087.2-.22,0-.359.024-.59.024l-1.816.024c-.794.043-1.659-.043-2.454,0-.109.006-.145.025-.282.024l-4.3,0c-.136,0-.17.024-.318.024l-.3,1.227h1.33c.469,0,.87-.024,1.321-.024.917,0,1.758-.025,2.666-.023.241,0,.392-.024.637-.024h.685c.144,0,.182-.021.305-.025.35-.011.612.01.993-.022.192-.016.46,0,.659,0,.143,0,.194-.018.306-.024l1.321-.024a2.873,2.873,0,0,0,.33-.024c.041.173.385.958.425,1.132h1.82c.152-.016.065-.049-.017-.247-.093-.223-.408-.818-.435-.934.386,0,.816-.048,1.2-.047.524,0,1.315-.074,1.841-.07a2.279,2.279,0,0,0,.284-.023c.1-.009.224,0,.33,0s.145-.025.281-.025a2.415,2.415,0,0,0,.325-.006c.164-.022.428-.018.6-.037l6.647-.359a2.424,2.424,0,0,1,.287-.024c.153,0,.154.012.224.106.05.066.083.108.135.172l.819,1.093c.339.516.154.4,1.2.4.635,0,.55.094.135-.465-.246-.332-1.056-1.26-1.149-1.4.258,0,.5-.045.756-.047l.771-.054c.1-.013.253-.013.37-.031l4.186-.32c.481-.051,1.013-.084,1.493-.134.425-.045,1.1-.074,1.523-.128l3.011-.276a.5.5,0,0,0-.2-.165c-.606,0-1.647.1-2.24.094l-1.983.07c-.131,0-.151.024-.281.025l-2.29.069c-.119,0-.131.024-.258.025-.481.006-1.574.033-2.007.069-.185.015-.4-.016-.585,0l-1.42.043c-.131,0-.15.024-.281.025-.177,0-.418-.016-.587,0a2.879,2.879,0,0,1-.57.021c-.129-.013-.524-.466-.619-.561l-.884-.884c-.063-.055-.091-.066-.154-.13l-.613-.566a1.422,1.422,0,0,0-.163-.144c-.1-.083-.205-.191-.31-.28l-3.63-2.857c-.124-.084-.219-.16-.345-.245l-1.75-1.2c-1.441-.961-3.226-2.035-4.773-2.894-.147-.082-1.026-.592-1.148-.621l1.794,1.131c.923.551,2.167,1.433,3.079,2.063l2.13,1.574c.07.055.128.1.2.152s.133.106.209.168c.47.381.951.743,1.4,1.145l1.764,1.562,1.291,1.281c.1.117.588.584.715.748l.529.6a6.3,6.3,0,0,0-.738.017c-.211.029-.523,0-.749.006-.128,0-.2.025-.353.024l-1.488.023c-.148,0-.2.025-.353.025-.229,0-.534-.017-.754,0s-.469.022-.733.022c-.282,0-.476.024-.755.024-1,0-1.961.051-2.972.047-.249,0-.458.024-.731.024h-.755c-.156,0-.2.025-.353.025h-1.157l-1.005-1.685c-.36-.551-.718-1.1-1.1-1.631-.091-.126-.172-.228-.258-.354-.383-.556-1.7-2.218-2.155-2.7-.06-.064-.077-.1-.142-.165s-.079-.1-.141-.165-.084-.1-.142-.165l-1.015-1.109a1.8,1.8,0,0,1-.151-.156,5.912,5.912,0,0,0-.439-.457l-.294-.319c-.4-.4-.8-.827-1.226-1.2a6.215,6.215,0,0,0-.632-.589l-.027.135Z" transform="translate(-3969.877 -761.579)" fill="#8b8d8f" fill-rule="evenodd"/><path d="M10250.81,3466.441a1.516,1.516,0,0,1-1.22-.43,1.685,1.685,0,0,1-.289-.466,4.231,4.231,0,0,1,.515-3.261,2.136,2.136,0,0,1,1.751-1.08,1.626,1.626,0,0,1,1.6,1.84,4.567,4.567,0,0,1-.606,2.269,2.176,2.176,0,0,1-1.75,1.128Zm-.872-5.756.089-.5c.044-.262.135-.465.006-.465h-2.052c-.1,0-.067.1-.114.288-.028.12-.05.235-.075.351l-1.76,8.334c-.046.241-.095.481-.145.7l-.224,1.051a1.983,1.983,0,0,0-.066.36h2.22c.265-1.143.484-2.286.745-3.43.021-.094.036-.167.052-.253a1.257,1.257,0,0,0,.051-.257c.083.054.111.156.173.251l.184.241a1.634,1.634,0,0,0,.479.395,3.51,3.51,0,0,0,2.688.23l.654-.244.556-.34a4.022,4.022,0,0,0,.639-.562c1.542-1.667,2.1-5.469.193-6.761a3.246,3.246,0,0,0-2.05-.547,2.83,2.83,0,0,0-1.856.691l-.295.344C10249.983,3460.632,10250,3460.639,10249.938,3460.685Z" transform="translate(-10105.4 -3412.255)" fill="#e63d25" fill-rule="evenodd"/><path d="M4265.689,1914.977h7.078l.354-2.76h-4.552l.785-6.126c.051-.381.465-3.456.465-3.71h-2.478l-.408,3.154c-.335,2.3-.593,4.765-.929,7.068l-.259,1.981C4265.725,1914.714,4265.7,1914.858,4265.689,1914.977Z" transform="translate(-4207.208 -1876.384)" fill="#211d1f" fill-rule="evenodd"/><path d="M8914.936,3466.422a1.388,1.388,0,0,1-1.207-.515,3,3,0,0,1-.233-2.646c.281-1.014.94-2.075,2.172-2.075,2.355,0,1.593,3.195,1,4.091A2.019,2.019,0,0,1,8914.936,3466.422Zm-3.869-2.1a4.518,4.518,0,0,0,.137,1.468,2.964,2.964,0,0,0,1.362,1.821,4.873,4.873,0,0,0,4.935-.324,3.016,3.016,0,0,0,.426-.354c.056-.056.1-.083.15-.131l.245-.273a4.728,4.728,0,0,0,.632-.973l.3-.76a6.245,6.245,0,0,0,.255-1.325,3.9,3.9,0,0,0-.547-2.564,2.925,2.925,0,0,0-1.535-1.132,4.975,4.975,0,0,0-1.88-.267,4.418,4.418,0,0,0-2.24.637l-.821.642c-.062.065-.078.1-.14.167A5.343,5.343,0,0,0,8911.066,3464.323Z" transform="translate(-8789.104 -3412.235)" fill="#e63d25" fill-rule="evenodd"/><path d="M9624.122,3478.88a2.527,2.527,0,0,0,.183,1.141c.436.973,1.313,1.147,2.318,1.147a3.492,3.492,0,0,0,2.188-.808l.259-.237a2.818,2.818,0,0,1,.244-.276c-.041.176-.079.378-.112.549a3.5,3.5,0,0,0-.1.56h2.171c.1-.409.159-.854.254-1.255.1-.418.157-.831.255-1.255.165-.713.368-1.78.515-2.529.169-.853.345-1.673.516-2.528.016-.077.135-.584.12-.614a2.767,2.767,0,0,0-.715-.029h-1.534l-.41,2.019c-.138.68-.279,1.349-.414,2.017a3.7,3.7,0,0,1-.975,2.068,1.879,1.879,0,0,1-1.433.525c-1.35,0-.916-1.571-.722-2.444.1-.467.192-.918.286-1.388.039-.195.552-2.6.552-2.8h-2.17c-.094,0-.082.126-.126.321l-.574,2.681c-.153.718-.357,1.575-.475,2.286A4.875,4.875,0,0,0,9624.122,3478.88Z" transform="translate(-9492.417 -3425.284)" fill="#e63d25" fill-rule="evenodd"/><path d="M3814.181,21.373l-.442,1.227a9.279,9.279,0,0,0-.339.944h2.641a2.194,2.194,0,0,0,.132-.458c.043-.169.08-.338.119-.486l.3-1.227c.067-.139,1.33-5.221,1.362-5.35l1.179-4.671a4.774,4.774,0,0,1,.179-.665l.028-.135.162-.643.211-.873c.119-.36.475-1.856.575-2.26l1.571-6.214c.05-.2.1-.369.147-.561-.062.046-.046.049-.074.138l-.431,1.174c-.158.457-.323.891-.483,1.333-.3.835-.7,1.858-.979,2.678L3817.6,12.01c-.08.22-.167.43-.242.655s-.16.449-.247.674l-.981,2.676c-.39,1.087-.839,2.255-1.214,3.338l-.613,1.675c-.042.116-.083.242-.124.345Z" transform="translate(-3761.099 0)" fill="#e63d25" fill-rule="evenodd"/><path d="M8427.931,3461.023l-.013.051Zm0,0a1.668,1.668,0,0,1,.062-.341c.041-.217.2-.834.2-1h-2.123a3.543,3.543,0,0,0-.116.5l-.53,2.56c-.085.43-1.052,4.96-1.052,5.152h2.24a3.587,3.587,0,0,1,.109-.552c.219-.986.586-3.008.835-3.834a3.733,3.733,0,0,1,.56-1.091c.06-.066.093-.116.152-.177s.109-.091.178-.154a2.629,2.629,0,0,1,2.151-.44,1.933,1.933,0,0,0,.309.047c.08-.347.161-.726.229-1.068.038-.193.22-.939.22-1.1l-.59-.023A3.228,3.228,0,0,0,8427.931,3461.023Z" transform="translate(-8309.058 -3412.216)" fill="#e63d25" fill-rule="evenodd"/><path d="M5020.09,2626.716h7.43c.048-.569.331-2.325.331-2.736h-7.313c-.117,0-.126.427-.155.624-.037.248-.058.458-.095.708s-.065.484-.1.7C5020.172,2626.143,5020.119,2626.654,5020.09,2626.716Z" transform="translate(-4951.3 -2588.123)" fill="#211d1f" fill-rule="evenodd"/><path d="M5115.04,1905.093h7.36l.288-2.025c.015-.1.03-.212.047-.33a2.443,2.443,0,0,0,.043-.358h-7.383l-.27,2.019a5.253,5.253,0,0,0-.083.694Z" transform="translate(-5044.952 -1876.384)" fill="#211d1f" fill-rule="evenodd"/><path d="M5066.7,2257.24h7.431a4.7,4.7,0,0,1,.081-.674c.035-.234.06-.427.094-.66l.179-1.355H5067.1l-.192,1.341c-.032.223-.065.441-.1.678A6.746,6.746,0,0,1,5066.7,2257.24Z" transform="translate(-4997.273 -2223.742)" fill="#211d1f" fill-rule="evenodd"/><path d="M11137.388,1451.978a3.021,3.021,0,0,1,.471-1.675c.049-.073.092-.137.146-.209l.324-.36a3.369,3.369,0,0,1,.625-.435,2.791,2.791,0,0,1,1.406-.293,2.546,2.546,0,0,1,1.125.291,2.717,2.717,0,0,1,.972.8,3.12,3.12,0,0,1-.136,3.893,2.739,2.739,0,0,1-1.89.893,2.849,2.849,0,0,1-1.867-.539c-.076-.056-.123-.1-.2-.159a3.038,3.038,0,0,1-.979-2.2Zm-.968-.118a3.593,3.593,0,0,0,.354,1.675,4.062,4.062,0,0,0,.784,1.08,3.939,3.939,0,0,0,4.225.745,3.586,3.586,0,0,0,1.119-.745,3.517,3.517,0,0,0,.784-1.079,3.775,3.775,0,0,0,.354-1.652,3.673,3.673,0,0,0-2.232-3.334,3.934,3.934,0,0,0-4.663,1.2A3.518,3.518,0,0,0,11136.42,1451.86Z" transform="translate(-10984.049 -1428.435)" fill="#171917" fill-rule="evenodd"/><path d="M11310.435,1583h-.517v-1.038c.457-.038,1.226-.146,1.226.543C11311.144,1582.837,11310.772,1583,11310.435,1583Zm-1.437-1.557v3.656h.826c.056,0,.069-.016.069-.071v-1.392c.575,0,.982-.07,1.133.519a3.31,3.31,0,0,0,.307.944h.921a2.5,2.5,0,0,1-.182-.5,2.786,2.786,0,0,0-.354-1.038.647.647,0,0,0-.183-.172c-.166-.12-.174-.043-.2-.152a.947.947,0,0,0,.757-.826v-.094c0-.7-.686-1.038-1.394-1.038a9.354,9.354,0,0,0-1.436.073C11309.165,1581.363,11309,1581.352,11309,1581.445Z" transform="translate(-11154.271 -1559.672)" fill="#171917" fill-rule="evenodd"/><path d="M3523.379,3748.427c.184.124.871.85,1.116,1.054l.765.7c.176.169,1.1.934,1.162,1.031l.047.012-1.681-1.893a1.083,1.083,0,0,1-.085-.1c-.036-.045-.065-.066-.1-.111l-.545-.658c-.063-.077-.114-.149-.178-.223l-.3-.379-.011-.013-.011-.012-.036-.039A5.057,5.057,0,0,0,3523.379,3748.427Z" transform="translate(-3475.042 -3696.576)" fill="#8b8d8f" fill-rule="evenodd"/><path d="M4792.268,773.4l-.048-.024Z" transform="translate(-4726.543 -762.812)" fill="#8b8d8f" fill-rule="evenodd"/><path d="M4783.627,3948.05l-.048.023Z" transform="translate(-4718.021 -3894.1)" fill="#8b8d8f" fill-rule="evenodd"/></g></g></svg>